<?xml version="1.0" encoding="utf-8"?>
<!-- Generator: Adobe Illustrator 26.0.0, SVG Export Plug-In . SVG Version: 6.00 Build 0)  -->
<svg version="1.1" id="Layer_1" xmlns="http://www.w3.org/2000/svg" xmlns:xlink="http://www.w3.org/1999/xlink" x="0px" y="0px"
	 viewBox="0 0 270 106" style="enable-background:new 0 0 270 106;" xml:space="preserve">
<style type="text/css">
	.st0{fill:#004288;}
	.st1{fill:#DA0042;}
	.st2{fill-rule:evenodd;clip-rule:evenodd;fill:#004288;}
</style>
<g>
	<path class="st0" d="M125.17,38.5l-4.42,12.36c-0.68,1.84-2.67,7.59-6.4,7.59c-0.76,0-1.69-0.26-1.95-1.23
		c-0.06-0.24-0.06-0.62,0.28-0.56c0.35,0.06,0.93,0.12,1.39,0.12c2.04,0.01,3-1.05,3.49-1.73c0.77-1.07,1.28-2.76,1.24-4.4
		c-0.03-1.34-0.51-2.73-1.01-4.34l-1.79-5.05c-0.34-1.08-0.88-2.25-1.53-2.65l2.8-0.32l3.28,9.64c0,0,1.44-3.88,2.13-6.38
		c0.23-0.83,0.33-1.48,0.26-2.09c-0.05-0.44-0.17-0.73-0.36-0.96L125.17,38.5L125.17,38.5z"/>
	<path class="st0" d="M207.26,38.49l0,0.91l-2.04,0c0.51,0.49,0.77,1.28,0.74,2.01c-0.06,2-1.18,3.04-3.4,3.96
		c-0.87,0.36-1.73,0.72-2.5,1.13c-0.45,0.23-0.69,0.47-0.67,0.84c0.02,0.28,0.22,0.48,0.67,0.68c1.15,0.49,3.43,0.71,5.36,1.46
		c1.72,0.66,2.51,1.7,2.51,3.22c0,2.95-5.2,5.67-7.77,5.67c-2.68,0-4.64-1.09-4.64-3.45c0-3.01,4.17-4.89,4.17-4.89
		c-0.77-0.18-2.66-0.51-2.57-2.1c0.1-1.64,3.36-2.44,3.36-2.44c-0.16-0.02-0.53-0.11-0.75-0.2c-1.64-0.64-2.37-1.91-2.35-3.35
		c0.04-2.74,2.29-3.83,4.48-3.82c0.6,0,1.1,0.09,1.57,0.22c0.42,0.12,0.89,0.14,1.14,0.14L207.26,38.49L207.26,38.49z M203.71,41.89
		c0-1.57-0.7-3.01-2.13-3.01c-1.43,0-1.99,1.27-1.99,2.63c0,1.6,0.71,3.03,2.31,3.03C203.17,44.54,203.71,43.27,203.71,41.89
		L203.71,41.89z M201.56,56.8c2.03,0,4.12-1.03,4.12-3.33c0-1.71-1.37-2.43-2.68-2.71c-0.98-0.21-1.86-0.38-2.09-0.43
		c-0.35,0.11-3.25,1.36-3.25,3.55C197.66,55.9,199.91,56.8,201.56,56.8L201.56,56.8z"/>
	<path class="st0" d="M160.32,36.59h-0.14c-0.66-1.27-1.62-2.44-4.41-2.44c-4.25,0-5.89,3.49-5.89,7.34c0,4.25,2.12,7.55,6.56,7.55
		c2.33,0,3.86-1,4.64-1.87v0.16c0,1.22-1.91,3.76-6.13,3.76c-4.93,0-7.92-3.61-7.93-8.85c-0.01-5.3,3.41-9.3,8.77-9.29
		c1.57,0,2.89,0.25,4.52,0.22V36.59L160.32,36.59z"/>
	<path class="st0" d="M188.26,42.98c-0.04,0.45-0.09,0.82-0.09,1.39c0,2.52,1.1,4.93,3.86,4.93c1.33,0,2.63-0.54,3.28-1.27v0.3
		c-0.1,1.44-1.65,2.74-4.06,2.75c-3.84,0.01-5.49-3.18-5.49-6.46c0-3.52,1.99-6.47,5.7-6.47c2.6,0,4.14,1.77,4.14,3.53
		c0,1.13-0.59,1.3-2.24,1.31H188.26L188.26,42.98z M191.13,42.17c1.33,0,2.03-0.07,2.03-1.09c0-1-0.73-2.06-2.06-2.06
		c-1.71,0-2.4,1.71-2.66,3.15H191.13L191.13,42.17z"/>
	<path class="st0" d="M210.2,42.98c-0.04,0.45-0.09,0.82-0.09,1.39c0,2.52,1.1,4.93,3.86,4.93c1.33,0,2.63-0.54,3.28-1.27v0.3
		c-0.1,1.44-1.65,2.74-4.06,2.75c-3.84,0.01-5.49-3.18-5.49-6.46c0-3.52,1.99-6.47,5.7-6.47c2.6,0,4.14,1.77,4.14,3.53
		c0,1.13-0.59,1.3-2.24,1.31H210.2L210.2,42.98z M213.07,42.17c1.33,0,2.03-0.07,2.03-1.09c0-1-0.73-2.06-2.06-2.06
		c-1.71,0-2.4,1.71-2.67,3.15H213.07L213.07,42.17z"/>
	<path class="st0" d="M107.86,51.08c-3.74,0-5.27-3.06-5.27-6.01c0-4.2,2.37-6.93,6.43-6.93c3.74,0,5.27,3.06,5.27,6.01
		C114.3,48.35,111.93,51.08,107.86,51.08L107.86,51.08z M108.76,50.1c2.55,0,3.2-2.55,3.2-4.79c0-3.17-0.95-6.18-3.82-6.18
		c-2.55,0-3.2,2.55-3.2,4.79C104.94,47.09,105.89,50.1,108.76,50.1L108.76,50.1z"/>
	<path class="st0" d="M150.58,77.72l0.01-2.59l0.12,0c0.62,1.39,1.67,2.18,3.34,2.17c1.52-0.01,2.47-0.83,2.47-2.28
		c0-1.67-1.41-2.26-2.76-3.05c-1.32-0.77-2.59-1.4-2.6-3.39c-0.01-2.16,1.57-3.19,4.12-3.19c0.81,0,2.02,0.1,2.82,0.34l0.01,2.05
		l-0.11,0c-0.6-1.2-1.55-1.56-2.8-1.56c-1.06,0-2.02,0.55-2.03,1.67c-0.02,1.45,1.21,2.01,2.46,2.71c1.54,0.85,2.99,1.75,2.99,3.82
		c0,2.57-2.24,3.84-4.54,3.85C152.7,78.28,151.56,78.06,150.58,77.72L150.58,77.72z"/>
	<path class="st0" d="M168.5,67.4c0.31-0.42,1.5-1.98,3.62-1.98c2.03,0,3.34,1,3.34,3.52l-0.01,6.06c0,1.13,0.07,2.24,0.54,2.93
		l-2.64,0v-7.42c0-1.73-0.17-3.63-2.34-3.63c-2.07,0-2.49,1.92-2.49,3.76V75c0,1.13,0.03,2.24,0.5,2.92h-3.12
		c0.47-0.68,0.51-1.79,0.51-2.92v-6.44c0-1.11-0.1-2.16-0.67-2.7l2.75-0.36V67.4L168.5,67.4z"/>
	<path class="st0" d="M130.19,49.61c1.62,0,2.39-1.24,2.39-3.01v-2.74l-1.42,0.73c-2,1-3.03,1.6-3.02,3.09
		C128.14,48.98,128.97,49.61,130.19,49.61L130.19,49.61z M132.57,49.2c-0.55,0.92-1.51,1.83-3.39,1.92
		c-1.87,0.08-3.38-0.93-3.38-2.99c0-2.56,3.05-3.54,4.9-4.33c1.59-0.68,1.87-0.89,1.88-2.41c0.01-1.35-0.48-2.38-2.07-2.38
		c-1.37,0-1.77,0.74-1.99,1.42c-0.2,0.62-0.46,1.18-1.28,1.18c-0.6,0-1-0.36-1-1.01c0-1.84,2.67-2.41,4.75-2.41
		c1.92,0,3.7,0.44,3.7,2.2l0,7.39c0,1.13,0.03,2.24,0.5,2.92l-2.45,0C132.63,50.36,132.56,49.57,132.57,49.2L132.57,49.2z"/>
	<path class="st0" d="M139.88,47.78c0,1.13,0.03,2.24,0.5,2.92h-3.12c0.48-0.68,0.51-1.79,0.51-2.92V34.89c0-1.11-0.1-2.16-0.67-2.7
		l2.77-0.42L139.88,47.78L139.88,47.78z"/>
	<path class="st0" d="M107.18,66.71l-2.85-0.01l0,8.3c0,1.13,0.03,2.24,0.5,2.92h-3.12c0.47-0.68,0.51-1.79,0.51-2.92l0-8.3l-1.3,0
		v-0.98h1.3v-3.51c0.1-2.6,2.16-3.17,4.43-3.11c0.62,0.02,1.92,0.26,1.92,1.11c0,0.51-0.38,0.86-0.84,0.89
		c-0.85,0.05-1.4-1.19-2.19-1.19c-1.14,0.01-1.21,1.3-1.21,2.92v2.89h2.85V66.71L107.18,66.71z"/>
	<path class="st0" d="M146.22,67.17l-0.17-1.69l-2.64,0.38c0.68,0.53,0.81,1.59,0.81,2.7V75c0,1.13-0.03,2.24-0.51,2.92h3.12
		c-0.47-0.68-0.5-1.79-0.5-2.92l0-6.04c0-0.95,0.33-1.96,1.76-1.68c0.48,0.09,1.08,0.24,1.66,0.13c0.52-0.1,0.73-0.46,0.72-0.98
		c-0.01-0.49-0.41-1.01-1.34-1.01C147.95,65.43,146.9,66.12,146.22,67.17L146.22,67.17z"/>
	<path class="st0" d="M138.91,76.43c0.03,0.66,0.08,1.22,0.14,1.5l2.42,0c-0.48-0.69-0.5-1.79-0.5-2.92l0-9.53l-2.78,0.38
		c0.57,0.54,0.67,1.59,0.67,2.7l0,4.03c0,2.68-0.6,4.16-2.44,4.28c-1.82,0.12-2.35-1.06-2.35-2.91l0-8.49l-2.78,0.38
		c0.57,0.54,0.67,1.59,0.67,2.7v5.96c0,2.26,0.98,3.81,3.4,3.82C137.24,78.34,138.54,77.05,138.91,76.43L138.91,76.43z"/>
	<path class="st0" d="M100.68,48.12l-4.66-6.4c2.31-0.85,3.91-2.44,3.91-4.94c0-2.26-1.89-3.56-4.95-3.56
		c-2.11,0-3.57,0.23-5.85,0.17c0.6,0.85,0.59,2.22,0.59,3.43v10.45c0,1.22,0.01,2.57-0.6,3.42h3.78c-0.6-0.85-0.61-2.2-0.61-3.42
		l0.01-4.95c1.03,0.09,1.31,0.42,2.02,1.37l4.03,5.6c0.6,0.87,1.11,1.39,2.27,1.39h2.45C102.33,50.16,101.47,49.18,100.68,48.12
		L100.68,48.12z M93.38,41.31c-0.35,0-0.72-0.02-1.07-0.06l-0.01-6.93l1.18,0c2.42,0,3.82,0.3,3.82,3.01
		C97.31,39.9,96.01,41.31,93.38,41.31L93.38,41.31z"/>
	<path class="st0" d="M128.77,66.65c0-2.38,0.02-4.53,0.84-5.98l-3.09,0c0.83,1.45,0.84,3.6,0.84,5.99l-0.01,7.45
		c0,0-8.65-12.25-9.22-13.01c-0.33-0.43-0.57-0.42-1.08-0.42h-2.83c0.81,0.81,0.87,2.26,0.87,3.59v7.7c0,2.38-0.02,4.53-0.85,5.98
		l3.09,0c-0.83-1.45-0.84-3.59-0.84-5.98l0-8.54l10.34,14.51h1.98c-0.03-0.81-0.05-1.52-0.05-2.41L128.77,66.65L128.77,66.65z"/>
	<path class="st0" d="M167.29,51.11c-3.74,0-5.27-3.11-5.27-6.07c0-4.2,2.37-6.88,6.43-6.88c3.74,0,5.27,3.06,5.27,6.01
		C173.72,48.37,171.35,51.11,167.29,51.11L167.29,51.11z M168.18,50.12c2.55,0,3.2-2.55,3.2-4.79c0-3.17-0.95-6.18-3.82-6.18
		c-2.55,0-3.2,2.55-3.2,4.79C164.37,47.11,165.31,50.12,168.18,50.12L168.18,50.12z"/>
	<path class="st0" d="M183.51,47.77c0,1.13,0.03,2.24,0.5,2.92h-3.12c0.48-0.69,0.51-1.79,0.51-2.92V34.88c0-1.11-0.1-2.16-0.67-2.7
		l2.77-0.42L183.51,47.77L183.51,47.77z"/>
	<path class="st0" d="M178.1,47.77c0,1.13,0.03,2.24,0.5,2.92h-3.12c0.47-0.69,0.51-1.79,0.51-2.92V34.88c0-1.11-0.1-2.16-0.67-2.7
		l2.77-0.42L178.1,47.77L178.1,47.77z"/>
	<path class="st0" d="M93.4,78.66c-3.74,0-5.25-3.11-5.25-6.07c0-4.2,2.35-6.88,6.41-6.88c3.74,0,5.25,3.06,5.25,6.01
		C99.81,75.93,97.46,78.66,93.4,78.66L93.4,78.66z M94.29,77.68c2.55,0,3.2-2.55,3.2-4.79c0-3.17-0.95-6.18-3.82-6.18
		c-2.55,0-3.2,2.55-3.2,4.79C90.47,74.66,91.42,77.68,94.29,77.68L94.29,77.68z"/>
	<path class="st0" d="M187.79,65.73l0,0.91l-2.04,0c0.51,0.49,0.77,1.28,0.74,2.01c-0.06,2-1.18,3.04-3.4,3.96
		c-0.87,0.36-1.73,0.72-2.49,1.13c-0.45,0.23-0.69,0.47-0.67,0.84c0.02,0.28,0.22,0.48,0.67,0.68c1.16,0.49,3.43,0.72,5.36,1.46
		c1.72,0.66,2.51,1.7,2.51,3.22c0,2.95-5.2,5.67-7.77,5.67c-2.68,0-4.64-1.09-4.64-3.45c0-3.01,4.17-4.89,4.17-4.89
		c-0.77-0.18-2.66-0.51-2.57-2.1c0.1-1.64,3.36-2.44,3.36-2.44c-0.16-0.02-0.53-0.11-0.75-0.2c-1.64-0.64-2.37-1.91-2.35-3.35
		c0.04-2.74,2.29-3.83,4.48-3.82c0.6,0,1.1,0.09,1.57,0.22c0.42,0.12,0.89,0.14,1.14,0.14L187.79,65.73L187.79,65.73z M184.24,69.13
		c0-1.57-0.7-3.01-2.13-3.01s-1.99,1.27-1.99,2.63c0,1.6,0.71,3.03,2.31,3.03C183.71,71.79,184.24,70.52,184.24,69.13L184.24,69.13z
		 M182.09,84.04c2.03,0,4.12-1.03,4.12-3.33c0-1.71-1.37-2.43-2.68-2.71c-0.98-0.21-1.86-0.38-2.09-0.43
		c-0.35,0.11-3.25,1.36-3.25,3.55C178.19,83.15,180.44,84.04,182.09,84.04L182.09,84.04z"/>
	<path class="st1" d="M46.85,77.55L27.94,41.19c-1.13-2.17-0.63-4.58,1.44-5.66c2.07-1.08,4.24-0.16,5.41,1.9l5.6,10.28
		c1.46,2.68,4.23,3.68,6.9,2.28c2.68-1.41,3.1-4.42,1.72-7.05c0,0-3.58-6.98-3.58-6.98l0.03-28.58c0-2.01,1.41-3.63,3.25-3.64
		c1.85,0,3.38,1.62,3.39,3.63l-0.04,30.25c0,0.35,0.26,0.63,0.57,0.63c0.32,0,0.59-0.28,0.59-0.62l0.03-33.49
		c0-2.01,1.44-3.63,3.29-3.64c1.85,0,3.43,1.62,3.43,3.63l-0.05,33.49c0,0.35,0.26,0.62,0.58,0.62c0.32,0,0.57-0.28,0.57-0.63
		L61.1,8.46c0-2.01,1.41-3.61,3.26-3.61c1.85,0,3.39,1.64,3.39,3.64l-0.03,29.12c0,0.35,0.26,0.62,0.58,0.62
		c0.32,0,0.57-0.28,0.57-0.63l0.02-23.63c0-2.01,1.45-3.64,3.29-3.64c1.85,0,3.4,1.62,3.41,3.63l-0.08,63.62L46.85,77.55
		L46.85,77.55z"/>
	<path class="st0" d="M30.73,48.82c0,0-3.62-7-3.62-7c-1.37-2.64-0.96-5.68,1.83-7.12c2.61-1.35,5.36-0.15,6.83,2.42l5.6,10.27
		c1.18,2.05,3.34,2.88,5.4,1.8c2.06-1.09,2.49-3.52,1.4-5.59L29.16,7.09L0.57,7.05L0.5,70.65c0,2.01,1.51,3.63,3.36,3.63
		c1.85,0,3.3-1.63,3.29-3.64l0.02-23.63c0-0.35,0.26-0.63,0.57-0.63c0.32,0,0.58,0.28,0.58,0.62L8.3,76.13
		c0,2.01,1.54,3.64,3.39,3.64c1.85,0,3.27-1.61,3.27-3.61L15,47c0-0.35,0.27-0.63,0.59-0.63c0.32,0,0.57,0.28,0.57,0.62l-0.04,33.49
		c0,2.01,1.57,3.63,3.41,3.63c1.85,0,3.28-1.63,3.28-3.64l0.02-33.49c0-0.35,0.27-0.62,0.59-0.62c0.32,0,0.57,0.28,0.57,0.63
		l-0.04,30.25c0,2.01,1.56,3.63,3.41,3.63c1.85,0,3.34-1.63,3.34-3.64L30.73,48.82L30.73,48.82z"/>
	<path class="st0" d="M163.13,75c0,1.13,0.03,2.24,0.51,2.93h-3.12c0.47-0.69,0.51-1.79,0.51-2.93v-6.45c0-1.11-0.1-2.16-0.67-2.71
		l2.78-0.38L163.13,75L163.13,75z"/>
	<path class="st0" d="M160.6,61.66c0-0.79,0.64-1.43,1.43-1.43c0.79,0,1.43,0.64,1.43,1.43c0,0.79-0.64,1.43-1.43,1.43
		C161.24,63.09,160.6,62.45,160.6,61.66L160.6,61.66z"/>
	<g>
		<path class="st2" d="M210.89,94.59c0-1.84,1.52-2.52,3-2.52c0.4,0,0.75,0.07,1.05,0.14c0.32,0.07,0.57,0.14,0.73,0.14l0.63-0.04
			l0.6-0.03c0.07,0,0.09,0.02,0.09,0.07c0,0.3-0.02,0.41-0.23,0.43l-0.8,0.07c0.34,0.37,0.43,0.89,0.43,1.37
			c0,1.39-0.77,2.09-2.32,2.57c-0.45,0.13-1.89,0.75-1.89,1.37c0,1.23,5.62,0.73,5.62,3.5c0,1.95-3.43,3.82-5.12,3.82
			c-1.77,0-2.98-0.8-2.98-2.36c0-1.98,2.52-2.8,2.52-3.27c0-0.32-1.54-0.14-1.54-1.34c0-1,1.86-1.12,1.86-1.52
			c0-0.09-0.1-0.1-0.18-0.14C211.33,96.36,210.89,95.54,210.89,94.59L210.89,94.59z M211.01,102.43c0,1.34,1.48,1.93,2.57,1.93
			c1.34,0,2.71-0.68,2.71-2.2c0-1.13-1-1.66-1.8-1.86c-0.64-0.16-1.07-0.27-1.23-0.27C213.07,100.04,211.01,100.99,211.01,102.43
			L211.01,102.43z M213.88,96.31c0.84,0,1.18-0.82,1.18-1.73c0-1.04-0.45-2-1.39-2c-0.94,0-1.29,0.82-1.29,1.71
			C212.38,95.35,212.83,96.31,213.88,96.31L213.88,96.31z"/>
		<path class="st2" d="M202.37,92.36l1.66-0.11v0.63c0,0.14-0.02,0.29,0.1,0.29c0.16,0,0.94-1.09,2.34-1.09
			c1.34,0,2.18,0.66,2.18,2.32v4c0,0.66,0,1.43,0.29,1.93h-1.6v-4.89c0-1.14-0.16-2.39-1.59-2.39c-1.41,0-1.68,1.27-1.68,2.48v2.87
			c0,0.66,0,1.43,0.32,1.93h-1.97c0.32-0.5,0.32-1.26,0.32-1.93v-4.25C202.74,93.42,202.74,92.72,202.37,92.36L202.37,92.36z"/>
		<path class="st2" d="M198.63,92.36l1.71-0.29v6.32c0,0.66,0,1.43,0.32,1.93h-1.97c0.32-0.5,0.32-1.26,0.32-1.93v-4.82
			C199.01,92.97,199.01,92.61,198.63,92.36L198.63,92.36z"/>
		<path class="st2" d="M193.43,93.7c0,2.12,3.71,1.87,3.71,4.35c0,1.69-1.64,2.55-3.16,2.55c-0.71,0-1.32-0.14-1.98-0.39
			c-0.2-0.07-0.3-0.14-0.3-0.39c0-0.43,0.07-0.86,0.09-1.3c0.55,0.89,1,1.44,2.18,1.44c1.05,0,1.68-0.5,1.68-1.52
			c0-2.18-3.53-1.82-3.53-4.46c0-1.34,1.03-1.91,2.71-1.91c0.53,0,1.09,0.09,1.62,0.21c0.05,0.02,0.24,0.05,0.24,0.16l-0.04,1.21
			c-0.7-0.87-1.05-1.05-1.87-1.05C194.07,92.61,193.43,92.94,193.43,93.7L193.43,93.7z"/>
		<path class="st2" d="M187.21,98.38v-3.16c0-1.27,0-2.5-0.46-2.87c0.66-0.02,1.28-0.09,1.5-0.09c0.32,0,0.13,0.89,0.32,0.89
			c0.09,0,0.68-1.07,1.73-1.07c0.62,0,0.98,0.25,0.98,0.68c0,0.34-0.18,0.59-0.62,0.59c-0.34,0-0.7-0.05-1.13-0.05
			c-0.89,0-1,0.63-1,1.41v3.67c0,0.66,0,1.43,0.32,1.94h-1.96C187.21,99.81,187.21,99.04,187.21,98.38L187.21,98.38z"/>
		<path class="st2" d="M183.65,96.65v-3.07c0-0.61-0.02-0.97-0.39-1.21l1.71-0.29v6.46c0,0.73,0,1.43,0.38,1.78l-1.68,0.11v-0.63
			c0-0.14-0.02-0.29-0.09-0.29c-0.13,0-0.82,1.09-2.34,1.09c-1.21,0-2.18-0.82-2.18-2.39v-4.71c0-0.61-0.02-0.97-0.39-1.21
			c0.48-0.07,1.2-0.21,1.44-0.21c0.24,0,0.27,0.14,0.27,0.39v4.78c0,1.14,0.16,2.39,1.59,2.39
			C183.6,99.65,183.65,97.86,183.65,96.65L183.65,96.65z"/>
		<path class="st2" d="M170.71,92.36l1.66-0.11v0.63c0,0.14-0.02,0.29,0.11,0.29c0.16,0,0.94-1.09,2.34-1.09
			c1.34,0,2.18,0.66,2.18,2.32v4c0,0.66,0,1.43,0.29,1.93h-1.6v-4.89c0-1.14-0.16-2.39-1.59-2.39c-1.41,0-1.68,1.27-1.68,2.48v2.87
			c0,0.66,0,1.43,0.32,1.93h-1.96c0.32-0.5,0.32-1.26,0.32-1.93v-4.25C171.08,93.42,171.08,92.72,170.71,92.36L170.71,92.36z"/>
		<path class="st2" d="M163.15,92.36v-2.48c0-1.71,1.36-2.05,2.86-2.05c0.41,0,1.27,0.05,1.27,0.64c0,0.34-0.25,0.55-0.55,0.55
			c-0.52,0-1.05-0.66-1.44-0.66c-0.75,0-0.8,1.39-0.8,1.93v2.07h1.14c0.05,0,0.12,0,0.12,0.05c0,0.03-0.02,0.23-0.05,0.34
			c-0.05,0.14-0.93,0.25-1.09,0.25h-0.12v5.39c0,0.66,0,1.43,0.32,1.93h-1.96c0.32-0.5,0.32-1.26,0.32-1.93v-5.39h-0.12
			c-0.2,0-0.39-0.04-0.59-0.05v-0.59H163.15L163.15,92.36z"/>
		<path class="st2" d="M161.5,96.04c0,2.77-1.53,4.57-4.21,4.57c-2.46,0-3.44-2.02-3.44-3.96c0-2.77,1.54-4.57,4.21-4.57
			C160.52,92.08,161.5,94.09,161.5,96.04L161.5,96.04z M155.34,95.86c0,2.09,0.64,4.1,2.54,4.1c1.68,0,2.12-1.66,2.12-3.14
			c0-2.09-0.64-4.1-2.53-4.1C155.79,92.72,155.34,94.38,155.34,95.86L155.34,95.86z"/>
		<path class="st2" d="M147.64,95.18h-3.2c-0.03,0.34-0.07,0.63-0.07,1c0,1.66,0.75,3.25,2.61,3.25c0.87,0,1.73-0.36,2.16-0.84v0.2
			c0,0.94-1.5,1.82-2.82,1.82c-2.34,0-3.45-2.1-3.45-4.26c0-2.32,1.29-4.27,3.73-4.27c1.71,0,2.73,1.13,2.73,2.28
			C149.34,95.18,148.75,95.18,147.64,95.18L147.64,95.18z M144.55,94.65h1.84c0.87,0,1.34,0,1.34-0.68c0-0.66-0.48-1.36-1.36-1.36
			C145.25,92.61,144.77,93.7,144.55,94.65L144.55,94.65z"/>
		<path class="st2" d="M141.79,92.33v1.77h-0.09c-0.43-0.82-0.75-1.37-1.78-1.37c-1.59,0-2.46,1.64-2.46,3.6
			c0,1.78,0.66,3.28,2.62,3.28c0.66,0,1.45-0.26,1.95-0.8v0.29c0,0.93-1.25,1.52-2.61,1.52c-2.25,0-3.57-1.83-3.57-4
			c0-2.57,1.66-4.53,4.3-4.53C141.03,92.08,141.79,92.25,141.79,92.33L141.79,92.33z"/>
		<path class="st2" d="M132.26,92.36l1.71-0.29v6.32c0,0.66,0,1.43,0.32,1.93h-1.97c0.32-0.5,0.32-1.26,0.32-1.93v-4.82
			C132.63,92.97,132.63,92.61,132.26,92.36L132.26,92.36z"/>
		<path class="st2" d="M130.98,96.04c0,2.77-1.53,4.57-4.21,4.57c-2.46,0-3.44-2.02-3.44-3.96c0-2.77,1.54-4.57,4.21-4.57
			C130,92.08,130.98,94.09,130.98,96.04L130.98,96.04z M124.82,95.86c0,2.09,0.64,4.1,2.54,4.1c1.68,0,2.12-1.66,2.12-3.14
			c0-2.09-0.64-4.1-2.53-4.1C125.27,92.72,124.82,94.38,124.82,95.86L124.82,95.86z"/>
		<path class="st2" d="M121.76,92.36h1.71c-0.39,0.57-0.59,1.03-0.86,1.66c-0.97,2.25-1.66,4-2.41,6.41h-1.02l-0.37-1.23
			c-0.87-2.86-1.52-5.3-2.44-6.84l1.3-0.11c0.32,0,0.41,0.13,0.6,0.79l1.57,5.19c0.09,0.27,0.11,0.48,0.21,0.48
			c0.13,0,0.2-0.27,0.27-0.5c0.5-1.61,1.46-3.78,1.46-5.32C121.8,92.72,121.78,92.54,121.76,92.36L121.76,92.36z"/>
		<path class="st2" d="M110.78,95.18h-3.2c-0.03,0.34-0.07,0.63-0.07,1c0,1.66,0.75,3.25,2.61,3.25c0.87,0,1.73-0.36,2.16-0.84v0.2
			c0,0.94-1.5,1.82-2.82,1.82c-2.34,0-3.45-2.1-3.45-4.26c0-2.32,1.29-4.27,3.73-4.27c1.71,0,2.73,1.13,2.73,2.28
			C112.47,95.18,111.88,95.18,110.78,95.18L110.78,95.18z M107.69,94.65h1.84c0.87,0,1.34,0,1.34-0.68c0-0.66-0.48-1.36-1.36-1.36
			C108.39,92.61,107.9,93.7,107.69,94.65L107.69,94.65z"/>
		<path class="st2" d="M104.41,94.4v4c0,0.66,0,1.43,0.29,1.93h-1.6v-4.89c0-1.14-0.16-2.39-1.59-2.39c-1.41,0-1.68,1.27-1.68,2.48
			v2.87c0,0.66,0,1.43,0.32,1.93h-1.97c0.32-0.5,0.32-1.26,0.32-1.93V89.9c0-0.73,0-1.43-0.47-1.78l1.78-0.29v5.05
			c0,0.14,0,0.29,0.07,0.29c0.13,0,0.82-1.09,2.34-1.09C103.58,92.08,104.41,92.74,104.41,94.4L104.41,94.4z"/>
		<path class="st2" d="M93.79,100.32H91.4c0.39-0.6,0.39-1.53,0.39-2.33v-8.16h-2.37c-0.41,0-0.82,0.05-1.27,0.39l0.36-1.28h8.98
			c-0.3,0.77-1.39,0.89-2.12,0.89H93.4v8.16C93.4,98.79,93.4,99.72,93.79,100.32L93.79,100.32z"/>
		<path class="st2" d="M134.11,90.04c0,0.5-0.41,0.91-0.91,0.91c-0.5,0-0.91-0.41-0.91-0.91c0-0.5,0.41-0.91,0.91-0.91
			C133.7,89.13,134.11,89.54,134.11,90.04L134.11,90.04z"/>
		<path class="st2" d="M200.48,90.04c0,0.5-0.41,0.91-0.91,0.91c-0.5,0-0.91-0.41-0.91-0.91c0-0.5,0.41-0.91,0.91-0.91
			C200.07,89.13,200.48,89.54,200.48,90.04L200.48,90.04z"/>
	</g>
</g>
</svg>
